<?xml version="1.0" encoding="UTF-8"?><svg xmlns="http://www.w3.org/2000/svg" viewBox="0 0 24 24" fill="#549" stroke-width="0"><path d="m17.24,16.93l1.7-1.74c.14-.13.21-.31.22-.51,0-.2-.07-.39-.21-.53l-2.11-2.16,2.11-2.16c.28-.29.28-.74,0-1.03l-1.71-1.76c-.28-.26-.71-.27-1.02,0l-2.16,2.2c-1.22-.86-2.92-.85-4.12,0l-2.16-2.21c-.28-.26-.71-.27-1.01,0l-1.72,1.75c-.27.29-.27.74,0,1.03l2.12,2.16-2.13,2.16c-.27.29-.27.75,0,1.03l1.71,1.75c.28.29.75.28,1.02,0l2.15-2.2c.61.43,1.32.66,2.07.66s1.46-.23,2.06-.66l2.16,2.2c.14.14.32.22.51.22s.38-.08.52-.22Zm-2.12-6.68l1.61-1.65.7.71-1.61,1.65-.7-.71Zm.7,2.77l1.61,1.65-.7.71-1.61-1.65.7-.71Zm-1.02-1.03l-.7.71-.7-.71.7-.72.7.72Zm-4.2,0l-.7.71-.7-.71.7-.71.7.71Zm1.57-.82c-.11.11-.26.1-.35,0l-.84-.86c.62-.34,1.41-.34,2.04,0l-.85.87Zm-.35,1.62c.08-.09.26-.1.35,0l.85.87c-.65.35-1.44.34-2.05,0l.85-.86Zm-3.63.23l.7.71-1.61,1.64-.7-.71,1.62-1.64Zm0-2.07l-1.62-1.65.7-.71,1.62,1.65-.7.71Z"/><path d="m15.9,17.27l-.4-.41s-.1-.07-.17-.07c-.05,0-.12.02-.17.07l-.9.89h0s-1.79,1.81-1.79,1.81c-.26.25-.71.25-.97,0l-2.69-2.69s-.12-.07-.17-.07c-.06,0-.12.03-.17.07l-.39.4c-.11.11-.23.2-.36.25-.07.03-.13.09-.14.17s0,.16.06.21l2.76,2.76c.06.07.13.11.18.14.37.33.87.51,1.39.51s1.03-.18,1.39-.49c.06-.04.14-.09.19-.16l2.76-2.76c.06-.06.08-.13.06-.21-.02-.08-.07-.14-.14-.17-.14-.06-.26-.14-.36-.24Z"/><path d="m8.07,6.68l.43.44s.1.07.17.07h0c.06,0,.12-.02.17-.07l2.67-2.68c.28-.27.71-.26.97,0l2.69,2.68s.1.07.17.07c.08,0,.12-.03.17-.07l.38-.39c.13-.12.25-.2.36-.24.07-.03.13-.09.15-.17s0-.16-.06-.22l-2.74-2.74c-.06-.07-.13-.12-.18-.16-.79-.65-1.98-.66-2.78-.02-.09.04-.15.11-.2.16l-2.74,2.75c-.06.06-.08.14-.06.21.02.08.07.14.14.17.1.04.2.11.31.2Z"/><path d="m5.09,13.13l-.65-.65c-.13-.12-.2-.29-.2-.48s.07-.35.2-.47l.65-.65c.09-.09.09-.24,0-.33l-.35-.36c-.13-.15-.21-.28-.26-.42-.03-.08-.09-.13-.17-.15-.08-.02-.16,0-.22.06l-.76.76c-.04.05-.09.11-.13.18-.32.37-.5.86-.5,1.37s.18,1.01.49,1.36c.04.07.09.14.16.22l.74.73s.1.07.17.07c.01,0,.03,0,.04,0,.08-.01.14-.07.17-.14.07-.17.15-.3.25-.4l.38-.38c.09-.09.09-.24,0-.33Z"/><path d="m20.79,13.41c.68-.79.68-1.96.02-2.78-.04-.07-.09-.13-.16-.2l-.74-.74c-.06-.06-.14-.08-.22-.06-.08.02-.14.07-.17.15-.05.14-.14.28-.26.4l-.36.37c-.09.09-.09.24,0,.33l.65.65c.26.26.26.69,0,.96l-.65.65c-.09.09-.09.24,0,.33l.35.36c.12.12.21.26.26.41.03.08.09.13.17.15.02,0,.03,0,.05,0,.06,0,.12-.02.17-.07l.72-.73c.06-.05.14-.12.16-.18Z"/><path d="m4.92,7.02s.06.02.1.02c.06,0,.12-.02.17-.07l1.76-1.77c.07-.07.09-.17.05-.26-.04-.09-.13-.15-.23-.14-.5.04-.98.26-1.35.63-.38.36-.59.83-.63,1.36,0,.1.05.19.14.23Z"/><path d="m17,4.93c-.04.09-.02.2.05.27l1.76,1.76s.11.07.17.07c.03,0,.07,0,.1-.02.09-.04.14-.14.13-.23-.1-1.04-.93-1.87-1.97-1.97-.09,0-.19.04-.23.13Z"/><path d="m22.56,8.52l-1.78-1.78c-.07-.07-.17-.09-.26-.05-.09.04-.15.12-.15.22v1.52c0,.06.02.12.07.17l1.08,1.08c1.23,1.28,1.23,3.37,0,4.66-.02.02-.04.04-.05.06l-1.02,1.02s-.07.1-.07.17v1.44c-.03.1,0,.22.1.28.04.02.08.04.12.04.06,0,.12-.02.17-.07l1.79-1.79c.93-.93,1.44-2.16,1.44-3.48,0-1.32-.51-2.55-1.44-3.48Z"/><path d="m2.53,14.39s-.06-.07-.06-.07c-1.23-1.3-1.23-3.33,0-4.63.02-.02.05-.05.06-.07l1.01-1.01s.07-.1.07-.17v-1.47c.03-.1,0-.22-.1-.27-.09-.06-.21-.04-.29.03l-1.79,1.79C.51,9.45,0,10.68,0,12s.51,2.55,1.44,3.48l1.79,1.79s.1.06.15.06c.05,0,.09-.01.14-.04.09-.06.13-.18.1-.29v-1.43c0-.06-.02-.12-.07-.17l-1.01-1.01Z"/><path d="m6.92,3.64s.05,0,.08-.01h1.42c.06,0,.12-.02.17-.07l1.03-1.03s.04-.02.06-.04c.62-.6,1.45-.94,2.33-.94s1.69.33,2.32.94c.02.02.04.04.06.05l1.02,1.02s.1.07.17.07h1.46c.1.03.22,0,.28-.1.06-.09.04-.21-.03-.29l-1.79-1.79c-.93-.93-2.17-1.45-3.48-1.45s-2.54.51-3.49,1.45l-1.79,1.79c-.08.08-.07.2-.02.29.04.07.13.11.21.11Z"/><path d="m6.8,19.22c.1,0,.18-.07.21-.16.03-.09.01-.18-.05-.25l-1.77-1.77c-.07-.07-.18-.09-.27-.05-.09.04-.14.14-.13.23.09,1.03.9,1.85,1.92,1.97.03.01.06.02.09.02Z"/><path d="m19.07,17.01c-.09-.04-.19-.02-.26.05l-1.77,1.76c-.07.07-.09.17-.05.26.04.08.12.14.21.14,0,0,.01,0,.02,0,.49-.04.97-.26,1.35-.63h0c.37-.37.59-.85.63-1.35,0-.1-.05-.19-.14-.23Z"/><path d="m17.09,20.38h-1.53c-.06,0-.12.02-.17.07l-1.01,1.01-.07.06c-1.25,1.19-3.37,1.19-4.63,0,0,0-.06-.05-.07-.06l-1.01-1.01s-.1-.07-.17-.07h-1.46c-.1-.03-.22,0-.28.1-.06.09-.04.21.03.29l1.78,1.79c.94.93,2.18,1.44,3.49,1.44s2.55-.51,3.48-1.44l1.78-1.78c.07-.07.09-.17.05-.26-.04-.09-.12-.15-.22-.15Z"/></svg>